<svg width="18" height="16" viewBox="0 0 18 16" fill="none" xmlns="http://www.w3.org/2000/svg">
<path d="M17.4867 11.2558L13.5491 9.76245C13.3809 9.69901 13.194 9.68565 13.0164 9.72436C12.8389 9.76308 12.6804 9.85178 12.5647 9.97712L10.8209 11.8625C8.08423 10.7206 5.88182 8.77164 4.59149 6.34985L6.72199 4.80673C6.86391 4.70458 6.96436 4.5643 7.00813 4.40712C7.05191 4.24994 7.03662 4.08442 6.96458 3.93561L5.27705 0.451143C5.19798 0.290736 5.05815 0.159769 4.88166 0.0808247C4.70516 0.00188073 4.50307 -0.0200918 4.31023 0.0186958L0.653918 0.765368C0.467998 0.80336 0.302119 0.895998 0.183355 1.02816C0.064592 1.16032 -4.28285e-05 1.32421 2.12917e-08 1.49306C2.12917e-08 9.47312 7.30911 15.9287 16.3128 15.9287C16.5037 15.9288 16.6889 15.8717 16.8384 15.7666C16.9878 15.6615 17.0925 15.5146 17.1355 15.35L17.9792 12.1145C18.0228 11.943 17.9974 11.7634 17.9075 11.6067C17.8176 11.45 17.6688 11.3259 17.4867 11.2558Z" fill="#FAFAFA"/>
</svg>
